<?xml version="1.0" encoding="UTF-8" standalone="no"?>
<!-- Created with Inkscape (http://www.inkscape.org/) -->

<svg
   width="150mm"
   height="150mm"
   viewBox="0 0 150 150"
   version="1.1"
   id="svg5"
   inkscape:version="1.1.1 (3bf5ae0d25, 2021-09-20)"
   sodipodi:docname="evolve-logo-path.svg"
   inkscape:export-filename="D:\Documents\Evolve\evolve-white-logo-square.png"
   inkscape:export-xdpi="96"
   inkscape:export-ydpi="96"
   xmlns:inkscape="http://www.inkscape.org/namespaces/inkscape"
   xmlns:sodipodi="http://sodipodi.sourceforge.net/DTD/sodipodi-0.dtd"
   xmlns="http://www.w3.org/2000/svg"
   xmlns:svg="http://www.w3.org/2000/svg">
  <sodipodi:namedview
     id="namedview7"
     pagecolor="#505050"
     bordercolor="#eeeeee"
     borderopacity="1"
     inkscape:pageshadow="0"
     inkscape:pageopacity="0"
     inkscape:pagecheckerboard="0"
     inkscape:document-units="mm"
     showgrid="false"
     inkscape:zoom="0.64052329"
     inkscape:cx="397.33138"
     inkscape:cy="61.668328"
     inkscape:window-width="1920"
     inkscape:window-height="1121"
     inkscape:window-x="-9"
     inkscape:window-y="-9"
     inkscape:window-maximized="1"
     inkscape:current-layer="layer1" />
  <defs
     id="defs2">
    <rect
       x="92.112183"
       y="235.74475"
       width="387.18341"
       height="121.77543"
       id="rect4280" />
  </defs>
  <g
     inkscape:label="Layer 1"
     inkscape:groupmode="layer"
     id="layer1">
    <path
       id="path20415"
       style="font-size:106.667px;line-height:1.25;font-family:Evolventa;-inkscape-font-specification:'Evolventa, Normal';white-space:pre;stroke-width:0.264583"
       d="M 79.747513,64.38902 V 85.23891 H 81.84196 V 64.38902 Z m -43.698107,5.043621 c -1.469911,0 -2.815614,0.354035 -4.037481,1.061431 -1.221861,0.707396 -2.186485,1.676784 -2.89388,2.907835 -0.707395,1.23105 -1.060916,2.581521 -1.060916,4.051432 0,1.120807 0.210953,2.186138 0.633553,3.196704 0.422601,1.010563 0.997122,1.878721 1.722893,2.604492 0.725768,0.725768 1.593926,1.300289 2.604492,1.722892 1.010563,0.422597 2.075894,0.633553 3.196704,0.633553 1.681212,0 3.210824,-0.50034 4.588867,-1.501717 1.378042,-1.010565 2.352196,-2.329225 2.921786,-3.955314 h -2.177646 c -0.431784,1.0565 -1.143595,1.910876 -2.135788,2.563151 -0.99219,0.643088 -2.076066,0.964798 -3.251996,0.964798 -1.589342,0 -2.967374,-0.528415 -4.134115,-1.584915 -1.166743,-1.065686 -1.79162,-2.361033 -1.874305,-3.886068 h 13.959355 c 0,-1.028938 -0.0689,-1.883317 -0.206705,-2.563151 -0.137803,-0.68902 -0.376317,-1.35949 -0.716235,-2.011764 -0.670648,-1.295358 -1.649048,-2.319867 -2.935222,-3.073197 -1.276985,-0.753329 -2.678326,-1.130162 -4.203361,-1.130162 z m 32.811434,0 c -2.370235,-4e-6 -4.327038,0.767444 -5.870443,2.301666 -1.54341,1.525034 -2.315104,3.459041 -2.315104,5.801714 0,1.525032 0.353521,2.903062 1.060916,4.134114 0.716584,1.23105 1.703998,2.195672 2.962611,2.89388 1.258612,0.69821 2.664203,1.046964 4.216797,1.046964 2.269175,0 4.14806,-0.762167 5.636347,-2.287198 1.488286,-1.525035 2.232422,-3.445259 2.232422,-5.760374 0,-1.534218 -0.344506,-2.921263 -1.033529,-4.161501 -0.679831,-1.24024 -1.625907,-2.209626 -2.838585,-2.907835 -1.203489,-0.707395 -2.553959,-1.061431 -4.051432,-1.06143 z m 38.9847,0 c -1.46991,0 -2.81561,0.354035 -4.03748,1.061431 -1.22186,0.707396 -2.18649,1.676784 -2.89388,2.907835 -0.7074,1.23105 -1.061435,2.581521 -1.061435,4.051432 0,1.120807 0.211475,2.186138 0.634075,3.196704 0.4226,1.010563 0.9966,1.878721 1.72237,2.604492 0.72577,0.725768 1.59393,1.300289 2.60449,1.722892 1.01056,0.422597 2.07641,0.633553 3.19722,0.633553 1.68121,0 3.21082,-0.50034 4.58887,-1.501717 1.37804,-1.010565 2.35168,-2.329225 2.92127,-3.955314 h -2.17713 c -0.43178,1.0565 -1.14359,1.910876 -2.13579,2.563151 -0.99218,0.643088 -2.07658,0.964798 -3.25251,0.964798 -1.58934,0 -2.96737,-0.528415 -4.13412,-1.584915 -1.16674,-1.065686 -1.7911,-2.361033 -1.87378,-3.886068 h 13.95935 c 0,-1.028938 -0.0689,-1.883317 -0.2067,-2.563151 -0.1378,-0.68902 -0.37684,-1.35949 -0.71676,-2.011764 -0.67064,-1.295358 -1.64904,-2.319867 -2.93522,-3.073197 -1.27698,-0.753329 -2.67781,-1.130162 -4.20284,-1.130162 z m -63.086588,0.372068 6.49056,15.434201 h 2.204516 l 6.49056,-15.434201 H 57.83619 l -5.539714,12.981638 -5.41569,-12.981638 z m 39.205357,0 6.49056,15.434201 h 2.204516 l 6.49056,-15.434201 h -2.108398 l -5.539714,12.981638 -5.41569,-12.981638 z m -47.914903,1.543576 c 1.497473,0 2.779043,0.445736 3.844727,1.336867 1.074872,0.891136 1.787199,2.103803 2.136304,3.638021 H 30.206869 c 0.284795,-1.488287 0.964279,-2.687172 2.039152,-3.59668 1.074872,-0.918694 2.34266,-1.378209 3.803385,-1.378208 z m 32.646069,0 c 1.745523,0 3.17867,0.588303 4.299479,1.764234 1.120807,1.166741 1.681033,2.659263 1.681033,4.478279 0,1.773081 -0.546446,3.233793 -1.639691,4.382161 -1.084062,1.139182 -2.475871,1.708939 -4.175456,1.708939 -1.745522,0 -3.192455,-0.578771 -4.34082,-1.736328 -1.148369,-1.157555 -1.722893,-2.618264 -1.722893,-4.382162 0,-1.782265 0.560742,-3.261524 1.681552,-4.437454 1.120806,-1.185116 2.526397,-1.777669 4.216796,-1.777669 z m 39.150065,0 c 1.49747,0 2.77904,0.445736 3.84473,1.336867 1.07487,0.891136 1.78668,2.103803 2.13578,3.638021 h -11.82357 c 0.2848,-1.488287 0.9648,-2.687172 2.03967,-3.59668 1.07488,-0.918694 2.34266,-1.378209 3.80339,-1.378208 z m 12.01632,10.335286 v 3.555339 h 2.08101 v -3.555339 z" />
  </g>
</svg>
